<svg id="bety" xmlns="http://www.w3.org/2000/svg" viewBox="0 0 2000 755" shape-rendering="geometricPrecision" text-rendering="geometricPrecision"><style>@keyframes bety-u-tt_c_o{0%,83.333333%{opacity:1}to{opacity:0}}@keyframes bety-u-b_ts__ts{0%{transform:translate(348.686803px,370.010421px) scale(1.3,1.3);animation-timing-function:cubic-bezier(0,0,.58,1)}23.333333%,to{transform:translate(348.686803px,370.010421px) scale(1,1)}}@keyframes bety-s-path3_s_do{0%{stroke-dashoffset:702.961582;animation-timing-function:cubic-bezier(.355252,.259893,.56718,1)}23.333333%,to{stroke-dashoffset:0}}@keyframes bety-s-path4_s_do{0%{stroke-dashoffset:2117.36}10%{stroke-dashoffset:1795.276552;animation-timing-function:cubic-bezier(.365699,.223427,.568504,1)}30%,to{stroke-dashoffset:0}}@keyframes bety-u-e_ts__ts{0%{transform:translate(840.908417px,419.191582px) scale(1.3,1.3)}16.666667%{transform:translate(840.908417px,419.191582px) scale(1.3,1.3);animation-timing-function:cubic-bezier(0,0,.58,1)}37%,to{transform:translate(840.908417px,419.191582px) scale(1,1)}}@keyframes bety-s-path6_s_w{0%{stroke-width:1}6.666667%{stroke-width:1;animation-timing-function:cubic-bezier(.429839,0,.696284,.564369)}26.666667%{stroke-width:144;animation-timing-function:cubic-bezier(.286336,.551189,.594758,1)}40%,to{stroke-width:155}}@keyframes bety-s-path6_s_do{0%{stroke-dashoffset:1583.11}6.666667%{stroke-dashoffset:1583.11;animation-timing-function:cubic-bezier(.429839,0,.696284,.564369)}26.666667%{stroke-dashoffset:525.408844;animation-timing-function:cubic-bezier(.286336,.551189,.594758,1)}40%,to{stroke-dashoffset:0}}@keyframes bety-u-t_ts__ts{0%{transform:translate(1245.766297px,382.519001px) scale(1.3,1.3)}30%{transform:translate(1245.766297px,382.519001px) scale(1.3,1.3);animation-timing-function:cubic-bezier(0,0,.58,1)}46.666667%,to{transform:translate(1245.766297px,382.519001px) scale(1,1)}}@keyframes bety-s-path8_s_do{0%,26.666667%{stroke-dashoffset:2015.79}53.333333%,to{stroke-dashoffset:0}}@keyframes bety-u-y_ts__ts{0%{transform:translate(1639.4px,377.5px) scale(1.3,1.3)}33.333333%{transform:translate(1639.4px,377.5px) scale(1.3,1.3);animation-timing-function:cubic-bezier(.42,0,.2,1)}56.666667%,to{transform:translate(1639.4px,377.5px) scale(1,1)}}@keyframes bety-s-path10_s_do{0%{stroke-dashoffset:1795.41}30%{stroke-dashoffset:1795.41;animation-timing-function:cubic-bezier(0,0,.58,1)}40%{stroke-dashoffset:997.45;animation-timing-function:cubic-bezier(0,0,.58,1)}60%,to{stroke-dashoffset:0}}#bety-u-tt{animation:bety-u-tt_c_o 2400ms linear infinite normal forwards}#bety-u-b_ts{animation:bety-u-b_ts__ts 2400ms linear infinite normal forwards}#bety-s-path3{animation:bety-s-path3_s_do 2400ms linear infinite normal forwards}#bety-s-path4{animation:bety-s-path4_s_do 2400ms linear infinite normal forwards}#bety-u-e_ts{animation:bety-u-e_ts__ts 2400ms linear infinite normal forwards}#bety-s-path6{animation-name:bety-s-path6_s_w,bety-s-path6_s_do;animation-duration:2400ms;animation-fill-mode:forwards;animation-timing-function:linear;animation-direction:normal;animation-iteration-count:infinite}#bety-u-t_ts{animation:bety-u-t_ts__ts 2400ms linear infinite normal forwards}#bety-s-path8{animation:bety-s-path8_s_do 2400ms linear infinite normal forwards}#bety-u-y_ts{animation:bety-u-y_ts__ts 2400ms linear infinite normal forwards}#bety-s-path10{animation:bety-s-path10_s_do 2400ms linear infinite normal forwards}</style><path id="bety-s-path1" d="M1801.2 11.7c38-.2 77 13.2 102.3 49.4 50.4 74.4 21.6 163.5-2.3 243.5-33.4 99.7-69.4 221.1-128.2 296.3-31.8 42.6-68.4 77-110.8 98.5-91.4 49-233.8 45.8-289.6-51.7-91 81.1-260.8 103.3-302.2-39.8-96.3 136.3-348.6 139.9-456.3 16.2-80.1 89.4-224.8 110.5-332.7 66.7-125.1 59.9-255.3 1.7-251.7-149.3.4-95.1 27.2-203.4 44.9-310.7L18.1 118.1c86.9-55.4 221.8-140.8 321.1-69 65.6-26.3 140.2-36 208.5-13.1l.5.1C621.3 57.5 670 131.5 664 205.5c101.6-92.3 329.2-138.1 424.4-16.7l-21.5-48c37-27.1 80-59.5 121.2-78 54.2-22.3 118-32 173 .9 72.2-71.6 210.9-69.8 263.7 24.8h1.4l-2.3-4.5c52.4-34.5 112.7-72.7 177.3-72.4v.1Zm-336 68.4-.7.1 1.6-.3h-.9v.2Z" fill-rule="evenodd"/><g id="bety-u-tt"><g id="bety-u-b_ts" transform="matrix(1.3 0 0 1.3 348.7 370)"><g id="bety-u-b" transform="translate(-348.7 -370)" mask="url(#bety-u-masks)"><path id="bety-s-path2" d="M261.5 91.3c57.3-1.5 42.9 47.5 70.8 37.1 60.5-30.2 131.1-48.9 197.8-26.6 82.7 22.4 89.8 133.9 41 194.4-13.9 17.9-32.3 33.3-55.1 46.5s-9.2 21.4 2.1 25.6c81.2 24.3 108.4 122.1 67.5 193.5-35.3 61.8-112.6 90.7-181.4 91.2-44.9 0-80.4-7.2-114.8-26.7a14.3 14.3 0 0 0-14.9.4c-45 32.1-123.9 40.6-156.5-1.4-51.9-91 10-264.6 26.5-394.7 3.9-5.2-31.9-67.3-33.5-73a14 14 0 0 1 5.5-18.5c43.3-24.8 95-48.4 145-47.7v-.1Zm91.8 317.1c-12.6 0-26.1 1.5-40.2 4.5-12.6 3.9-38.2 3-41 18.3-5.5 31.3-11.6 62.8-10.6 90.3.6 17 25.4 17.3 38.7 22.3 34.2 7.4 74.1 7.4 102.4-13.5 32.3-18.6 35.1-86.9 3.8-106.2a89 89 0 0 0-53.1-15.7Zm25.8-217.6c-13.9.4-64.3 2.5-65.1 19.7-2.8 17.2-6.4 37.3-10.8 60.3-11.7 71-35.3 95 55.4 66.6a140.6 140.6 0 0 0 56.9-32.9c37.8-35.9 31-119.6-36.4-113.7Z" transform="translate(-2.5 -2.5)" fill="#fff" stroke-width="33" stroke-miterlimit="33"/><mask id="bety-u-masks" mask-type="luminance" x="-150%" y="-150%" height="400%" width="400%"><g id="bety-s-g1"><path id="bety-s-path3" d="M86-14.2c290.6 113.5-86 542 109.6 726.5" fill="none" stroke="#fff" stroke-width="222" stroke-linecap="round" stroke-dashoffset="703" stroke-dasharray="765.5"/><path id="bety-s-path4" d="M-153 377.5q620-327 680.6-202.4Q605.5 335.4 228 377.5q325.2-30.3 299.6 126.3T0 541.3" fill="none" stroke="#fff" stroke-width="222" stroke-linecap="round" stroke-dashoffset="2117.4" stroke-dasharray="2117.4"/></g></mask></g></g><g id="bety-u-e_ts" transform="matrix(1.3 0 0 1.3 841 419.2)"><g id="bety-u-e" transform="translate(-841 -419.2)" mask="url(#bety-u-masks2)"><path id="bety-s-path5" d="M917 185.5c185.8-7.1 185.9 203 26.6 252-37.9 13.8-87.6 21.5-148.9 23-31 2.5-.5 66.3 7 75.8 27.5 39 86.4 34.4 110.8-5.2 6-9.8 9.6-22.4 10.9-37.8s7-13.1 14.5-12.9c27.8.9 50.2 4.6 67.2 11 43.9 16.8 33.3 63.9 6.1 95.7-40.2 45.2-103.6 66.6-171.5 65.8-183.9 5.7-259.9-150.8-195-306.6C691.5 241 803.3 184.2 917.1 185.5h-.1ZM904.1 273c-40.8 0-70.9 32.5-91.8 67.3-7.2 15.2-36.9 57.4-3.5 58.2 57.3-7.5 123.9-33.8 130.3-91.1 0-20.4-13.6-34.8-34.9-34.4h-.1Z" fill="#fff"/><mask id="bety-u-masks2" mask-type="luminance" x="-150%" y="-150%" height="400%" width="400%"><path id="bety-s-path6" d="M484.5 460.5Q940 441.7 1000 334.9c59.9-106.8-122.5-179.2-244-41.2-147 166.8 6.1 329 85 329q161.6 0 159-162.2" fill="none" stroke="#fff" stroke-linecap="round" stroke-dashoffset="1583.1" stroke-dasharray="1583.1"/></mask></g></g><g id="bety-u-t_ts" transform="matrix(1.3 0 0 1.3 1245.8 382.5)"><g id="bety-u-t" transform="translate(-1245.8 -382.5)" mask="url(#bety-u-masks3)"><path id="bety-s-path7" d="M1284.6 112.1c73.1-3.5 61.8 58 52.2 109.9-1.6 26 29.4 13.6 43.9 10.3 17.7-3.8 19.3 17.5 19.2 30.1-.6 42.8-27.9 75.6-75.9 74-6.7 0-12.4 4.7-13.8 11.2-4.6 21.6-8.9 43.5-12.9 65.7-16.4 79.7 17.2 143.6 45.4 156.6a14.2 14.2 0 0 1 2.7 22.4c-49.9 48.9-146 90.9-195.8 32.1-34.5-49.6-16.6-136.3-6.8-201.2 3.3-18 6.4-35.9 9.5-53.6 1.4-17.7-14.9-18.4-27.7-13.7-15.8 5.4-30.4 7.8-31.8-13.7-7-50.8 17-84.6 64.9-90.2 7.6-.9 13.2-7.6 12.5-15.3a207 207 0 0 0-15.4-59.8 14.2 14.2 0 0 1 5.1-17c39.2-26.5 75.9-48.6 124.8-47.9l-.1.1Z" fill="#fff"/><mask id="bety-u-masks3" mask-type="luminance" x="-150%" y="-150%" height="400%" width="400%"><path id="bety-s-path8" d="M1025 66.6Q1310.2 55 1225.5 370C1142.8 677.8 1412 549.7 1345.4 718c-144.8 366-313-186.4-300-298.7C1059.9 293.7 1264 302 1264 302q146.2-8.3 191.2-74" fill="none" stroke="#fff" stroke-width="333" stroke-linecap="round" stroke-dashoffset="2015.8" stroke-dasharray="2015.8"/></mask></g></g><g id="bety-u-y_ts" transform="matrix(1.3 0 0 1.3 1639.4 377.5)"><g id="bety-u-y" transform="translate(-1639.4 -377.5)" mask="url(#bety-u-masks4)"><path id="bety-s-path9" d="M1542.9 670.8c-99.1 1.2-152.1-64.4-91.1-150.2 52.4 73.7 151.6 57.9 180.7-30.1-61.4 24.4-144.6 16.9-150.6-62.5-16.9-101.8 12.3-241.7-71.5-314.6 25.8-23 47.7-30.3 84.2-30.9 130.2-3.7 116.2 247.7 114.6 341.8l41.5-.3c24.4-75.2 98.4-242.6 60.8-312.6 65.4-40.9 156.9-54.6 156.9 47.6-.9 63.9-29.1 138.3-50.1 199.8-46.1 145.1-115.3 306.7-275.4 311.9v.1Z" fill="#fab53c"/><mask id="bety-u-masks4" mask-type="luminance" x="-150%" y="-150%" height="400%" width="400%"><path id="bety-s-path10" d="M1355.3 0q149 57 176.4 208c27.5 151-8.6 227.4 49 239q57.7 11.5 130.8-23.8 161.3-286.6 77-286.6c-84.3 0-19.6 387.2-137.8 450.5s-212.8 22.2-270-45.8" fill="none" stroke="#fff" stroke-width="155" stroke-linecap="round" stroke-miterlimit="1" stroke-dashoffset="1795.4" stroke-dasharray="1795.4"/></mask></g></g></g></svg>