<svg width="422" height="109" viewBox="0 0 422 109" fill="none" xmlns="http://www.w3.org/2000/svg">
<g clip-path="url(#clip0_2553_12393)">
<path d="M0.000145044 52.9301C-0.154229 49.6146 7.48727 46.3579 18.9688 44.2587C19.2969 39.9427 18.7373 35.1558 17.7917 30.5847C16.0936 22.3646 13.1219 14.8703 11.7711 12.1041C11.3466 11.2409 11.5589 10.2208 12.2729 9.61258C15.206 7.10142 23.1755 1.03933 32.9589 0.176117C42.4915 -0.667476 50.2488 1.76521 53.3363 2.94232C54.1853 3.27583 54.7256 4.13904 54.6292 5.06111L51.9855 37.6473L51.1365 6.06165C51.1365 5.61042 50.8084 5.23767 50.3839 5.1592C48.7437 4.88454 47.0455 4.29599 45.4632 4.04095C45.0966 3.98209 44.7685 4.27637 44.8264 4.66874C45.1931 7.90578 43.8616 22.9924 36.1815 42.2577C36.8762 42.2184 37.5902 42.1792 38.3041 42.1399C59.7042 41.1198 77.2449 44.3176 77.4765 49.2614C77.6309 52.675 69.5455 56.0298 57.5237 58.1093C58.3727 57.5404 58.8165 56.9519 58.778 56.3633C58.6622 53.7737 49.4769 52.1061 38.2848 52.6358C27.0927 53.1655 18.1198 55.6963 18.2355 58.2859C18.2548 58.8156 18.6601 59.3061 19.3741 59.7377C7.9311 58.7371 0.154519 56.226 0.000145044 52.9301Z" fill="#282828"/>
<path d="M52.9309 106.645C50.8469 105.9 46.1963 103.84 42.2598 101.603C40.4459 100.583 36.6445 97.7973 34.4253 96.1886C33.7886 95.7177 33.2096 96.1101 33.7886 96.9144L36.7795 101.348C36.7795 101.348 29.4661 105.586 25.819 106.724C25.3945 106.861 25.0085 106.488 25.0278 106.037C25.105 101.054 25.2594 96.2474 26.6488 90.048C26.7452 89.636 27.4785 89.4791 27.8645 89.6556C29.4275 90.3815 39.8091 97.5422 39.8091 97.5422L50.8083 90.1068C51.8503 89.4202 52.1783 90.0872 52.2362 90.4796C52.9695 94.6583 54.2238 101.113 53.7607 105.939C53.7221 106.41 53.3747 106.783 52.9502 106.626" fill="#E6C55B"/>
<path d="M178.514 51.0271C179.942 48.5159 180.656 45.0042 180.656 40.5312C180.656 36.0582 179.942 32.5073 178.514 29.9961C177.086 27.485 174.732 25.6801 171.451 24.5815C168.171 23.5024 163.598 22.9531 157.731 22.9531C151.865 22.9531 147.292 23.5024 144.011 24.5815C140.731 25.6605 138.377 27.4654 136.949 29.9961C135.521 32.5073 134.807 36.019 134.807 40.5312C134.807 45.0435 135.521 48.4963 136.968 51.0271C138.415 53.5383 140.77 55.3628 144.05 56.4614C147.33 57.56 151.904 58.1094 157.712 58.1094C163.52 58.1094 168.152 57.56 171.432 56.4614C174.713 55.3628 177.067 53.5579 178.495 51.0271M169.773 48.9279C167.766 49.026 165.759 49.1045 163.771 49.1437C161.784 49.183 159.758 49.2222 157.731 49.2222C155.705 49.2222 153.679 49.2026 151.692 49.1437C149.704 49.0849 147.716 49.026 145.748 48.9279V32.0953C147.716 32.0365 149.704 31.9776 151.692 31.9187C153.679 31.8599 155.705 31.8403 157.731 31.8403C159.758 31.8403 161.784 31.8599 163.771 31.9187C165.759 31.958 167.766 32.0168 169.773 32.0953V48.9279Z" fill="#282828"/>
<path d="M230.326 57.0895L218.13 45.6127C220.407 45.4754 222.356 45.083 223.958 44.4356C225.984 43.6117 227.47 42.3953 228.435 40.767C229.38 39.1387 229.863 37.118 229.863 34.7245C229.863 32.3311 229.38 30.3104 228.435 28.682C227.489 27.0537 225.984 25.8374 223.958 24.9938C221.932 24.1698 219.346 23.7578 216.22 23.7578H189.417V57.3249H199.374V45.6716H205.433L217.532 57.3249H230.345V57.0699L230.326 57.0895ZM199.354 31.5659H219.365V38.6286H199.354V31.5659Z" fill="#282828"/>
<path d="M233.297 32.2918H249.372V57.3249H259.329V32.2918H275.403V23.7578H233.297V32.2918Z" fill="#282828"/>
<path d="M311.777 48.9283C309.963 48.9871 308.111 49.0656 306.22 49.1244C304.329 49.1833 302.611 49.2225 301.087 49.2225C299.562 49.2225 297.806 49.1833 295.915 49.1244C294.024 49.0656 292.172 48.9871 290.358 48.9283V23.7578H280.401V41.2378C280.401 45.5539 281.057 48.9086 282.369 51.3413C283.681 53.7544 285.823 55.5004 288.775 56.5598C291.728 57.6192 295.838 58.1293 301.087 58.1293C306.335 58.1293 310.388 57.5996 313.34 56.5598C316.293 55.5004 318.434 53.774 319.747 51.3413C321.059 48.9283 321.715 45.5539 321.715 41.2378V23.7578H311.758V48.9283H311.777Z" fill="#282828"/>
<path d="M363.492 50.4585H363.241L348.132 23.7578H331.672V57.3249H341.243V30.6243H341.494L356.584 57.3249H373.044V23.7578H363.492V50.4585Z" fill="#282828"/>
<path d="M393.692 49.1441V44.004H413.799V37.0787H393.692V31.9583H421.267V23.7578H383.735V57.3249H422V49.1441H393.692Z" fill="#282828"/>
<path d="M94.0136 80.2192H114.507V103.722C113.079 103.761 110.975 103.722 108.197 103.683C107.869 103.683 107.56 103.683 107.27 103.663C106.981 103.663 106.672 103.644 106.344 103.644C100.845 103.408 95.2679 102.996 89.6333 102.408L89.8262 108.234C92.4506 108.47 95.3258 108.646 98.4519 108.803C101.578 108.96 104.337 109.019 106.73 109.019C110.3 109.019 113.059 108.646 115.028 107.901C116.996 107.155 118.424 105.9 119.273 104.114C120.122 102.329 120.566 99.8376 120.566 96.6202V74.8438H93.9943V80.2192H94.0136Z" fill="#E6C55B"/>
<path d="M143.278 74.8242L126.085 108.156V108.411H132.549L136.64 100.407H159.082L163.134 108.411H169.792V108.156L152.463 74.8242H143.278ZM139.4 95.0312L147.851 78.5517H147.987L156.342 95.0312H139.38H139.4Z" fill="#E6C55B"/>
<path d="M182.007 103.761V79.4734C184.11 79.4145 187.178 79.4145 191.231 79.4734C197.772 79.5715 204.796 79.9442 212.303 80.6113L212.148 74.7846C208.848 74.5884 205.645 74.4511 202.538 74.3726C199.432 74.2941 196.19 74.2549 192.832 74.2549C187.776 74.2549 184.052 74.7061 181.64 75.6086C179.228 76.511 177.568 78.159 176.661 80.5524C175.755 82.9459 175.291 86.6341 175.291 91.6368C175.291 96.6395 175.735 100.289 176.661 102.702C177.568 105.095 179.228 106.763 181.659 107.665C184.091 108.568 187.815 109.019 192.832 109.019C196.035 109.019 199.297 108.98 202.616 108.901C205.935 108.823 209.196 108.685 212.399 108.489L212.553 102.662C204.95 103.329 197.791 103.702 191.095 103.8C187.043 103.859 184.014 103.859 182.007 103.8" fill="#E6C55B"/>
<path d="M257.553 75.0793V74.8242H248.908L227.45 91.6764V74.8242H221.372V108.391H227.45V98.6018L234.59 93.0105L250.028 108.391H258.48V108.156L239.279 89.3419L257.553 75.0793Z" fill="#E6C55B"/>
<path d="M103.643 32.2918H131.083V23.7578H93.6856V57.3249H103.643V46.1228H123.499V38.5697H103.643V32.2918Z" fill="#282828"/>
</g>
<defs>
<clipPath id="clip0_2553_12393">
<rect width="422" height="109" fill="white"/>
</clipPath>
</defs>
</svg>
